<svg width="17" height="17" viewBox="0 0 17 17" xmlns="http://www.w3.org/2000/svg">
<path d="M12.7459 13.1835L13.2753 12.6577C15.7245 12.7377 15.7622 12.6518 15.8698 12.4L16.5427 10.7619L16.5927 10.6066L16.538 10.4707C16.5092 10.399 16.4204 10.1849 14.8911 8.72673V7.95972C16.6557 6.25983 16.618 6.17277 16.5174 5.92396L15.8475 4.26877C15.7469 4.02055 15.7087 3.9235 13.277 3.98997L12.7477 3.44294C12.8023 2.63717 12.7745 1.82792 12.6647 1.0278L12.5965 0.873099L10.8472 0.10844C10.5896 -0.00919934 10.499 -0.0515496 8.84731 1.74716L8.105 1.73599C6.40452 -0.079195 6.32394 -0.0462559 6.06925 0.0566789L4.44288 0.714286C4.18819 0.81722 4.09819 0.853689 4.19701 3.32412L3.67175 3.84762C1.22366 3.76763 1.18602 3.85468 1.07955 4.10525L0.405477 5.74398L0.352539 5.90103L0.40783 6.03749C0.436652 6.10807 0.521941 6.31982 2.05479 7.77973V8.54439C0.29019 10.2443 0.328423 10.3313 0.429593 10.5807L1.09896 12.2377C1.20131 12.4912 1.23778 12.5812 3.66881 12.5177L4.19818 13.0676C4.14331 13.8722 4.17031 14.6802 4.27877 15.4793L4.347 15.6351L6.10748 16.4045C6.36335 16.5115 6.45216 16.5498 8.09912 14.7575L8.84143 14.7669C10.5443 16.5845 10.6313 16.5492 10.8801 16.4486L12.503 15.7928C12.7594 15.691 12.8488 15.6551 12.7459 13.1835V13.1835ZM5.77103 9.34611C5.56578 8.8097 5.52352 8.22462 5.64956 7.66429C5.77559 7.10396 6.0643 6.59332 6.47947 6.19647C6.89464 5.79961 7.41776 5.5342 7.98321 5.43355C8.54865 5.33289 9.13123 5.40148 9.65784 5.63069C10.1845 5.85991 10.6316 6.23955 10.9433 6.72197C11.2549 7.20439 11.4172 7.76811 11.4096 8.3424C11.4021 8.91668 11.2251 9.47595 10.9009 9.95002C10.5767 10.4241 10.1197 10.7919 9.58726 11.0072C8.8608 11.2913 8.05137 11.276 7.33615 10.9647C6.62093 10.6534 6.05816 10.0714 5.77103 9.34611V9.34611Z"/>
</svg>
