<svg width="24" height="24" viewBox="0 0 24 24" xmlns="http://www.w3.org/2000/svg">
<path d="M5 17.75V13.984L9.06 16.637C9.93417 17.2082 10.9558 17.5123 12 17.5123C13.0442 17.5123 14.0658 17.2082 14.94 16.637L19 13.984V17.75C19 17.9123 18.9474 18.0702 18.85 18.2L18.849 18.201L18.848 18.203L18.845 18.207L18.836 18.217L18.824 18.233L18.811 18.25L18.725 18.351C18.6241 18.4655 18.5183 18.5756 18.408 18.681C18.131 18.948 17.718 19.295 17.158 19.639C16.037 20.329 14.339 21 12 21C9.661 21 7.964 20.33 6.841 19.639C6.39163 19.3652 5.97262 19.0444 5.591 18.682C5.43961 18.5359 5.29702 18.381 5.164 18.218L5.155 18.208L5.152 18.203V18.201C5.05404 18.071 5.00072 17.9128 5 17.75ZM22.16 10.128L14.12 15.381C13.4897 15.793 12.753 16.0124 12 16.0124C11.247 16.0124 10.5103 15.793 9.88 15.381L3 10.886V16.25C3 16.4489 2.92098 16.6397 2.78033 16.7803C2.63968 16.921 2.44891 17 2.25 17C2.05109 17 1.86032 16.921 1.71967 16.7803C1.57902 16.6397 1.5 16.4489 1.5 16.25V10C1.5 9.91201 1.515 9.82801 1.543 9.75001C1.48668 9.59062 1.48587 9.41687 1.54069 9.25696C1.5955 9.09704 1.70274 8.96034 1.845 8.86901L9.909 3.69901C10.5331 3.29903 11.2588 3.08643 12 3.08643C12.7412 3.08643 13.4669 3.29903 14.091 3.69901L22.155 8.86901C22.2603 8.93663 22.347 9.02953 22.4073 9.13924C22.4675 9.24896 22.4993 9.372 22.4998 9.49715C22.5003 9.62231 22.4695 9.7456 22.4101 9.85579C22.3508 9.96597 22.2648 10.0596 22.16 10.128Z"/>
</svg>
