<svg width="100" height="14" viewBox="0 0 100 14" fill="none" xmlns="http://www.w3.org/2000/svg">
<path d="M7.26825 6.376H14.1002V13H11.2842L10.9482 10.168C10.6282 11.1813 10.0576 11.9333 9.23625 12.424C8.41491 12.9147 7.41225 13.16 6.22825 13.16C5.15091 13.16 4.19091 12.92 3.34825 12.44C2.51625 11.96 1.86025 11.272 1.38025 10.376C0.910914 9.48 0.676247 8.43467 0.676247 7.24C0.676247 5.33067 1.24691 3.82133 2.38825 2.712C3.52958 1.60267 5.30558 1.048 7.71625 1.048C9.09225 1.048 10.3029 1.272 11.3482 1.72C12.4042 2.168 13.3002 2.86133 14.0362 3.8C13.5562 4.04533 12.6176 4.536 11.2202 5.272L10.8202 5.496C10.4042 5.08 9.91891 4.77067 9.36425 4.568C8.80958 4.35467 8.22291 4.248 7.60425 4.248C6.58025 4.248 5.81758 4.52 5.31625 5.064C4.81491 5.59733 4.56425 6.25867 4.56425 7.048C4.56425 7.90133 4.83091 8.58933 5.36425 9.112C5.90825 9.63467 6.73491 9.896 7.84425 9.896C8.32425 9.896 8.78825 9.82667 9.23625 9.688C9.69491 9.54933 10.0789 9.30933 10.3882 8.968H7.26825V6.376ZM18.8194 6.6C18.8087 7.24 18.8034 8.22133 18.8034 9.544C18.8034 11.1333 18.814 12.2853 18.8354 13H15.0594L15.0754 11.192C15.0967 9.208 15.1074 7.67733 15.1074 6.6C15.1074 5.576 15.0967 4.12533 15.0754 2.248L15.0594 0.52H18.8354C18.814 2.03467 18.8034 3.272 18.8034 4.232C18.8034 5.29867 18.8087 6.088 18.8194 6.6ZM24.9539 13.16C23.1299 13.16 21.7859 12.744 20.9219 11.912C20.0685 11.0693 19.6419 9.96533 19.6419 8.6C19.6419 7.26667 20.0685 6.184 20.9219 5.352C21.7859 4.52 23.1299 4.104 24.9539 4.104C26.1805 4.104 27.2045 4.30667 28.0259 4.712C28.8579 5.10667 29.4712 5.64533 29.8659 6.328C30.2605 7 30.4579 7.75733 30.4579 8.6C30.4579 9.976 29.9992 11.08 29.0819 11.912C28.1752 12.744 26.7992 13.16 24.9539 13.16ZM25.0179 10.44C25.7112 10.44 26.2285 10.2747 26.5699 9.944C26.9112 9.61333 27.0819 9.17067 27.0819 8.616C27.0819 8.09333 26.9112 7.66667 26.5699 7.336C26.2285 6.99467 25.7112 6.824 25.0179 6.824C24.3245 6.824 23.8179 6.98933 23.4979 7.32C23.1779 7.65067 23.0179 8.08267 23.0179 8.616C23.0179 9.17067 23.1779 9.61333 23.4979 9.944C23.8179 10.2747 24.3245 10.44 25.0179 10.44ZM38.2071 4.104C38.9218 4.104 39.5565 4.32267 40.1111 4.76C40.6765 5.18667 41.1138 5.75733 41.4231 6.472C41.7325 7.176 41.8871 7.928 41.8871 8.728C41.8871 9.53867 41.7325 10.2853 41.4231 10.968C41.1138 11.64 40.6818 12.1733 40.1271 12.568C39.5725 12.9627 38.9485 13.16 38.2551 13.16C37.4445 13.16 36.7405 12.9893 36.1431 12.648C35.5458 12.296 35.0978 11.7467 34.7991 11L34.3351 13H31.2631C31.3271 10.9947 31.3591 8.92 31.3591 6.776C31.3591 4.61067 31.3271 2.536 31.2631 0.551999H34.8791L34.8311 2.52C34.7778 3.90667 34.7511 5.144 34.7511 6.232C35.0391 5.50667 35.4765 4.97333 36.0631 4.632C36.6605 4.28 37.3751 4.104 38.2071 4.104ZM36.5751 10.472C37.0871 10.472 37.4925 10.3013 37.7911 9.96C38.0898 9.61867 38.2391 9.176 38.2391 8.632C38.2391 8.14133 38.0738 7.74667 37.7431 7.448C37.4231 7.13867 37.0231 6.984 36.5431 6.984C36.2978 6.984 36.0418 7.04267 35.7751 7.16C35.5085 7.26667 35.2791 7.448 35.0871 7.704C34.8951 7.94933 34.7991 8.25867 34.7991 8.632C34.7991 9.29333 34.9485 9.768 35.2471 10.056C35.5458 10.3333 35.9885 10.472 36.5751 10.472ZM53.1054 10.344C53.1054 10.7067 53.148 10.9627 53.2334 11.112C53.3187 11.2613 53.4894 11.368 53.7454 11.432L53.6814 12.936C53.34 12.9893 53.0414 13.0267 52.7854 13.048C52.54 13.0693 52.2094 13.08 51.7934 13.08C50.876 13.08 50.268 12.8773 49.9694 12.472C49.6707 12.056 49.5214 11.528 49.5214 10.888V10.488C49.212 11.3627 48.7587 12.0133 48.1614 12.44C47.5747 12.8667 46.8227 13.08 45.9054 13.08C44.8387 13.08 44.0334 12.8667 43.4894 12.44C42.956 12.0133 42.6894 11.3787 42.6894 10.536C42.6894 9.84267 42.9187 9.29867 43.3774 8.904C43.836 8.50933 44.5454 8.23733 45.5054 8.088C44.6947 7.512 43.884 7.01067 43.0734 6.584C43.7134 5.77333 44.444 5.16 45.2654 4.744C46.0867 4.31733 47.084 4.104 48.2574 4.104C49.9 4.104 51.116 4.46133 51.9054 5.176C52.7054 5.88 53.1054 6.968 53.1054 8.44V10.344ZM48.5934 6.92C48.0494 6.92 47.5694 7.01067 47.1534 7.192C46.7374 7.37333 46.364 7.64533 46.0334 8.008C46.6734 7.93333 47.4734 7.896 48.4334 7.896C48.828 7.896 49.1054 7.848 49.2654 7.752C49.4254 7.656 49.5054 7.53333 49.5054 7.384C49.5054 7.256 49.4254 7.14933 49.2654 7.064C49.1054 6.968 48.8814 6.92 48.5934 6.92ZM46.9134 10.472C47.5107 10.472 48.0494 10.36 48.5294 10.136C49.0094 9.90133 49.34 9.59733 49.5214 9.224V8.808C49.2654 8.936 48.9827 9.03733 48.6734 9.112C48.364 9.176 47.9907 9.24 47.5534 9.304L46.9774 9.4C46.38 9.51733 46.0814 9.72 46.0814 10.008C46.0814 10.3173 46.3587 10.472 46.9134 10.472ZM58.1487 6.6C58.1381 7.24 58.1327 8.22133 58.1327 9.544C58.1327 11.1333 58.1434 12.2853 58.1647 13H54.3887L54.4047 11.192C54.4261 9.208 54.4367 7.67733 54.4367 6.6C54.4367 5.576 54.4261 4.12533 54.4047 2.248L54.3887 0.52H58.1647C58.1434 2.03467 58.1327 3.272 58.1327 4.232C58.1327 5.29867 58.1381 6.088 58.1487 6.6ZM72.8752 4.744C71.2006 4.69067 69.5739 4.65867 67.9952 4.648V13H63.9952V4.648C62.4059 4.65867 60.7846 4.69067 59.1312 4.744V1.384H72.8752V4.744ZM82.1766 10.344C82.1766 10.7067 82.2193 10.9627 82.3046 11.112C82.39 11.2613 82.5606 11.368 82.8166 11.432L82.7526 12.936C82.4113 12.9893 82.1126 13.0267 81.8566 13.048C81.6113 13.0693 81.2806 13.08 80.8646 13.08C79.9473 13.08 79.3393 12.8773 79.0406 12.472C78.742 12.056 78.5926 11.528 78.5926 10.888V10.488C78.2833 11.3627 77.83 12.0133 77.2326 12.44C76.646 12.8667 75.894 13.08 74.9766 13.08C73.91 13.08 73.1046 12.8667 72.5606 12.44C72.0273 12.0133 71.7606 11.3787 71.7606 10.536C71.7606 9.84267 71.99 9.29867 72.4486 8.904C72.9073 8.50933 73.6166 8.23733 74.5766 8.088C73.766 7.512 72.9553 7.01067 72.1446 6.584C72.7846 5.77333 73.5153 5.16 74.3366 4.744C75.158 4.31733 76.1553 4.104 77.3286 4.104C78.9713 4.104 80.1873 4.46133 80.9766 5.176C81.7766 5.88 82.1766 6.968 82.1766 8.44V10.344ZM77.6646 6.92C77.1206 6.92 76.6406 7.01067 76.2246 7.192C75.8086 7.37333 75.4353 7.64533 75.1046 8.008C75.7446 7.93333 76.5446 7.896 77.5046 7.896C77.8993 7.896 78.1766 7.848 78.3366 7.752C78.4966 7.656 78.5766 7.53333 78.5766 7.384C78.5766 7.256 78.4966 7.14933 78.3366 7.064C78.1766 6.968 77.9526 6.92 77.6646 6.92ZM75.9846 10.472C76.582 10.472 77.1206 10.36 77.6006 10.136C78.0806 9.90133 78.4113 9.59733 78.5926 9.224V8.808C78.3366 8.936 78.054 9.03733 77.7446 9.112C77.4353 9.176 77.062 9.24 76.6246 9.304L76.0486 9.4C75.4513 9.51733 75.1526 9.72 75.1526 10.008C75.1526 10.3173 75.43 10.472 75.9846 10.472ZM87.22 6.6C87.2093 7.24 87.204 8.22133 87.204 9.544C87.204 11.1333 87.2147 12.2853 87.236 13H83.46L83.476 11.192C83.4973 9.208 83.508 7.67733 83.508 6.6C83.508 5.576 83.4973 4.12533 83.476 2.248L83.46 0.52H87.236C87.2147 2.03467 87.204 3.272 87.204 4.232C87.204 5.29867 87.2093 6.088 87.22 6.6ZM99.4985 4.248L95.5305 7.864C96.8852 9.784 98.1492 11.496 99.3225 13H95.0825L94.2665 11.688C93.7332 10.8027 93.3812 10.2267 93.2105 9.96L91.8825 11.176V13H88.2025C88.2878 10.9733 88.3305 8.92 88.3305 6.84C88.3305 4.74933 88.2878 2.65333 88.2025 0.551999H91.8825V7.336C92.9172 6.28 93.8932 5.25067 94.8105 4.248H99.4985Z" fill="black"/>
</svg>
